<svg id="Layer_1" height="512" viewBox="0 0 256 256" width="512" xmlns="http://www.w3.org/2000/svg"><g><g><g><g><circle cx="128" cy="128" fill="#e63950" r="113.349"/></g></g><g><g><path d="m202.994 43.006c17.646 19.984 28.355 46.238 28.355 74.994 0 62.601-50.748 113.349-113.349 113.349-28.756 0-55.01-10.708-74.994-28.355 20.769 23.521 51.149 38.355 84.994 38.355 62.601 0 113.349-50.748 113.349-113.349 0-33.845-14.834-64.225-38.355-84.994z" fill="#d10028"/></g></g><g><g><path d="m205.611 45.389c19.06 20.281 30.738 47.582 30.738 77.611 0 62.601-50.748 113.349-113.349 113.349-30.029 0-57.33-11.677-77.611-30.738 20.675 21.999 50.038 35.738 82.611 35.738 62.601 0 113.349-50.748 113.349-113.349 0-32.572-13.74-61.935-35.738-82.611z" fill="#b7022d"/></g></g><g><g><path d="m20.649 130c-1.1 0-2-.9-2-2s.9-2 2-2c1.101 0 2 .9 2 2s-.899 2-2 2zm.29-8c-.05 0-.09 0-.14 0-1.11-.08-1.93-1.04-1.85-2.14.949-13.03 4.17-25.6 9.56-37.38 5.41-11.8 12.87-22.5 22.17-31.8 8.97-8.98 19.26-16.24 30.59-21.6 11.29-5.35 23.36-8.68 35.87-9.9 2.69-.26 5.42-.43 8.13-.5h.05c1.091 0 1.971.86 1.99 1.96.03 1.1-.84 2.02-1.95 2.04-2.609.07-5.239.23-7.829.48-24.421 2.4-46.56 12.89-64.02 30.35-17.88 17.87-28.729 41.54-30.57 66.64-.081 1.04-.95 1.85-2.001 1.85z" fill="#e8566f"/></g></g></g><g><g><g><g><g><circle cx="55.644" cy="141.872" fill="#ffd2c0" r="19.656"/></g></g></g><g><g><g><circle cx="55.644" cy="141.872" fill="#f2ad97" r="11.397"/></g></g></g><g><g><g><circle cx="200.356" cy="141.872" fill="#ffd2c0" r="19.656"/></g></g></g><g><g><g><circle cx="200.356" cy="141.872" fill="#f2ad97" r="11.397"/></g></g></g></g><g><g><g><path d="m200.354 113.321v33.8c.242 36.195-33.464 65.428-72.355 65.12-38.89.306-72.597-28.923-72.354-65.12v-33.8c0-35.958 32.402-65.12 72.355-65.12 39.96-.01 72.343 29.169 72.354 65.12z" fill="#ffd2c0"/></g></g></g><g><g><path d="m200.354 147.121v-33.8c-.006-19.163-9.21-36.402-23.856-48.322 8.711 10.755 13.852 24.001 13.856 38.322v33.8c.242 36.195-33.464 65.428-72.355 65.12-18.341.144-35.529-6.281-48.547-16.907 13.362 16.455 35.005 27.092 58.547 26.907 38.891.308 72.597-28.924 72.355-65.12z" fill="#fcc4ae"/></g></g><g><g><g><g><path d="m85.33 111.653c-.996-.996-2.635-.868-3.493.249-6.063 7.895-5.48 19.254 1.749 26.483s18.588 7.812 26.483 1.749c1.117-.858 1.245-2.496.249-3.493z" fill="#fff"/></g></g></g><g><g><g><circle cx="94.421" cy="131.728" fill="#995222" r="6.879"/></g></g></g></g><g><g><g><g><path d="m170.72 111.653c.996-.996 2.635-.868 3.493.249 6.063 7.895 5.48 19.254-1.749 26.483s-18.588 7.812-26.483 1.749c-1.117-.858-1.245-2.496-.249-3.493z" fill="#fff"/></g></g></g><g><g><g><circle cx="161.629" cy="131.728" fill="#995222" r="6.879"/></g></g></g></g></g><g><g><path d="m170.236 48.201c0-23.326-18.91-42.236-42.236-42.236s-42.236 18.91-42.236 42.236c0 19.289 12.931 35.558 30.598 40.612l7.555 15.794c1.423 2.974 5.63 3.047 7.155.124l8.259-15.831c17.823-4.952 30.905-21.297 30.905-40.699z" fill="#f1f2f2"/></g></g><g><g><g><path d="m155.261 15.94c6.223 7.357 9.975 16.871 9.975 27.261 0 19.401-13.082 35.746-30.906 40.698l-8.259 15.831c-.734 1.408-2.091 2.12-3.459 2.149l1.305 2.727c1.423 2.974 5.63 3.047 7.155.124l8.259-15.831c17.824-4.952 30.906-21.297 30.906-40.698-.001-12.936-5.817-24.513-14.976-32.261z" fill="#e6e7e8"/></g></g></g><g><g><path d="m149.757 186.071h-43.514c-6.777 0-12.272-5.494-12.272-12.272 0-6.777 5.494-12.272 12.272-12.272h43.514c6.777 0 12.272 5.494 12.272 12.272-.001 6.778-5.495 12.272-12.272 12.272z" fill="#e59076"/></g></g><g><g><g><path d="m128.505 53.994c-3.201 0-5.796-2.595-5.796-5.796v-22.601c0-3.201 2.595-5.796 5.796-5.796 3.201 0 5.796 2.595 5.796 5.796v22.602c-.001 3.201-2.596 5.795-5.796 5.795z" fill="#e63950"/></g></g><g><g><path d="m128 74.107c-3.48 0-6.3-2.821-6.3-6.3 0-3.48 2.821-6.3 6.3-6.3 3.48 0 6.3 2.821 6.3 6.3 0 3.479-2.82 6.3-6.3 6.3z" fill="#e63950"/></g></g></g><g><g><g><g><path d="m107.757 52.826c-2.67 0-4.834-2.164-4.834-4.834v-18.851c0-2.67 2.164-4.834 4.834-4.834 2.67 0 4.834 2.164 4.834 4.834v18.851c0 2.67-2.164 4.834-4.834 4.834z" fill="#e63950"/></g></g><g><g><path d="m107.336 69.601c-2.902 0-5.255-2.353-5.255-5.255 0-2.902 2.353-5.255 5.255-5.255 2.902 0 5.255 2.353 5.255 5.255 0 2.902-2.353 5.255-5.255 5.255z" fill="#e63950"/></g></g></g><g><g><g><path d="m149.085 52.826c-2.67 0-4.834-2.164-4.834-4.834v-18.851c0-2.67 2.164-4.834 4.834-4.834 2.67 0 4.834 2.164 4.834 4.834v18.851c0 2.67-2.165 4.834-4.834 4.834z" fill="#e63950"/></g></g><g><g><path d="m148.664 69.601c-2.902 0-5.255-2.353-5.255-5.255 0-2.902 2.353-5.255 5.255-5.255 2.902 0 5.255 2.353 5.255 5.255 0 2.902-2.353 5.255-5.255 5.255z" fill="#e63950"/></g></g></g></g></g></svg>