<?xml version="1.0" encoding="iso-8859-1"?>
<!-- Generator: Adobe Illustrator 22.1.0, SVG Export Plug-In . SVG Version: 6.00 Build 0)  -->
<svg xmlns="http://www.w3.org/2000/svg" xmlns:xlink="http://www.w3.org/1999/xlink" version="1.1" id="Layer_1_1_" x="0px" y="0px" viewBox="0 0 64 64" style="enable-background:new 0 0 64 64;" xml:space="preserve" width="512" height="512">
<g>
	<g>
		<path style="fill:#FFEAA7;" d="M34,62H10H2V48.32c0-2.58,1.65-4.87,4.1-5.69l6.61-2.2L17,49l5-6l5,6l4.29-8.57l6.61,2.2H38V59    c0,0.83,0.34,1.58,0.88,2.12C39.42,61.66,40.17,62,41,62H34z"/>
		<polygon style="fill:#FCD770;" points="31.29,40.43 27,49 22,43 27,39   "/>
		<polygon style="fill:#FCD770;" points="22,43 17,49 12.71,40.43 17,39   "/>
		<path style="fill:#B27946;" d="M12,20c-2.21,0-4,1.79-4,4v-8C8,8.27,14.27,2,22,2c3.86,0,7.36,1.57,9.9,4.1    C34.43,8.64,36,12.14,36,16v8c0-1.1-0.45-2.1-1.17-2.83C34.1,20.45,33.1,20,32,20c0-2.21-1.79-4-4-4H16C13.79,16,12,17.79,12,20z"/>
		<path style="fill:#F0D0B4;" d="M27,35.66V39l-5,4l-5-4v-3.34c1.47,0.85,3.18,1.34,5,1.34S25.53,36.51,27,35.66z"/>
		<path style="fill:#F0D0B4;" d="M36,24c0,2.21-1.79,4-4,4h-0.05c0.03-0.33,0.05-0.66,0.05-1v-7c1.1,0,2.1,0.45,2.83,1.17    C35.55,21.9,36,22.9,36,24z"/>
		<path style="fill:#F0D0B4;" d="M32,20v7c0,0.34-0.02,0.67-0.05,1c-0.23,2.36-1.29,4.48-2.88,6.07c-0.62,0.62-1.31,1.15-2.07,1.59    C25.53,36.51,23.82,37,22,37s-3.53-0.49-5-1.34c-2.72-1.57-4.62-4.38-4.95-7.66C12.02,27.67,12,27.34,12,27v-7c0-2.21,1.79-4,4-4    h12C30.21,16,32,17.79,32,20z"/>
		<path style="fill:#F0D0B4;" d="M12,20v7c0,0.34,0.02,0.67,0.05,1H12c-1.1,0-2.1-0.45-2.83-1.17C8.45,26.1,8,25.1,8,24    C8,21.79,9.79,20,12,20z"/>
		<path style="fill:#CCD1D9;" d="M62,60v2H42h-1c-0.83,0-1.58-0.34-2.12-0.88C38.34,60.58,38,59.83,38,59c0-1.66,1.34-3,3-3h21V60z"/>
		<path style="fill:#CF9E76;" d="M62,28v28H41c-1.66,0-3,1.34-3,3V42.63V31c0-1.66,1.34-3,3-3H62z"/>
		<rect x="42" y="32" style="fill:#E6E9ED;" width="16" height="10"/>
	</g>
	<g>
		<path d="M26,29h-2c0,1.103-0.897,2-2,2s-2-0.897-2-2h-2c0,2.206,1.794,4,4,4S26,31.206,26,29z"/>
		<circle cx="17" cy="23" r="1"/>
		<circle cx="27" cy="23" r="1"/>
		<rect x="25" y="52" width="6" height="2"/>
		<path d="M41,27c-2.206,0-4,1.794-4,4v10.28l-9-3.001v-2.072c2.495-1.631,4.283-4.246,4.822-7.291C35.187,28.522,37,26.475,37,24    v-8c0-8.271-6.729-15-15-15S7,7.729,7,16v8c0,2.463,1.794,4.503,4.178,4.913c0.537,3.046,2.326,5.662,4.822,7.294v2.072    L5.786,41.685C2.924,42.638,1,45.307,1,48.324V63h40h1h21v-3v-5V27H41z M29.876,41.013l-3.087,6.173l-3.368-4.042l3.779-3.023    L29.876,41.013z M33,26.816v-5.631c1.161,0.414,2,1.514,2,2.816S34.161,26.402,33,26.816z M9,24c0-1.302,0.839-2.402,2-2.816    v5.631C9.839,26.402,9,25.302,9,24z M11.092,19.092C10.314,19.236,9.608,19.566,9,20.026V16C9,8.832,14.832,3,22,3s13,5.832,13,13    v4.026c-0.608-0.46-1.314-0.79-2.092-0.934C32.479,16.768,30.446,15,28,15H16C13.554,15,11.521,16.768,11.092,19.092z M13,27v-7    c0-1.654,1.346-3,3-3h12c1.654,0,3,1.346,3,3v7c0,4.963-4.037,9-9,9S13,31.963,13,27z M22,38c1.412,0,2.758-0.277,4-0.764v1.283    l-4,3.201l-4-3.201v-1.283C19.242,37.723,20.588,38,22,38z M16.8,40.121l3.779,3.023l-3.368,4.042l-3.087-6.173L16.8,40.121z     M3,48.324c0-2.155,1.374-4.062,3.419-4.743l5.788-1.929l4.582,9.163L22,44.561l5.211,6.253l4.582-9.163L37,43.387V59    c0,0.732,0.212,1.409,0.556,2H35v-9h-2v9H11v-9H9v9H3V48.324z M61,61H42h-1c-1.103,0-2-0.897-2-2s0.897-2,2-2h20v3V61z M41,55    c-0.732,0-1.409,0.212-2,0.556V31c0-1.103,0.897-2,2-2h20v26H41z"/>
		<path d="M41,31v12h18V31H41z M57,41H43v-8h14V41z"/>
		<rect x="49" y="45" width="10" height="2"/>
		<rect x="57" y="49" width="2" height="2"/>
		<rect x="53" y="49" width="2" height="2"/>
		<rect x="49" y="49" width="2" height="2"/>
	</g>
</g>
</svg>
