<svg height="512pt" viewBox="-8 0 511 512" width="512pt" xmlns="http://www.w3.org/2000/svg"><path d="m66.6875 237.398438c-7.011719-4.554688-15.1875-6.984376-23.550781-7-17.484375.015624-33.1875 10.691406-39.632813 26.945312-6.441406 16.25-2.316406 34.789062 10.40625 46.777344 12.726563 11.988281 31.476563 15 47.316406 7.601562zm0 0" fill="#f09372"/><path d="m434.648438 311.722656c15.839843 7.414063 34.605468 4.410156 47.339843-7.582031s16.859375-30.542969 10.410157-46.800781c-6.449219-16.261719-22.167969-26.9375-39.660157-26.941406-8.363281.015624-16.539062 2.445312-23.554687 7zm0 0" fill="#f09372"/><path d="m85.183594 410.933594c35.109375 59.820312 94.933594 101.066406 162.753906 101.066406s127.644531-41.246094 162.753906-101.066406l26.222656-65.417969c2.605469-10.941406 4.449219-22.050781 5.511719-33.246094.710938-7.375 1.066407-14.933593 1.066407-22.488281.0625-18.523438-2.210938-36.976562-6.753907-54.933594-20.628906-87.601562-98.804687-149.507812-188.800781-149.507812-90 0-168.175781 61.90625-188.800781 149.507812-4.546875 17.957032-6.816407 36.410156-6.753907 54.933594 0 7.554688.355469 15.113281 1.066407 22.488281 1.0625 11.195313 2.90625 22.304688 5.511719 33.246094zm0 0" fill="#fdd7ad"/><path d="m247.9375 102.398438c-4.714844.003906-8.535156-3.8125-8.539062-8.523438-.003907-4.714844 3.8125-8.539062 8.527343-8.542969 2.089844-.007812 51.210938-.550781 51.210938-34.132812s-49.121094-34.125-51.210938-34.132813c-4.714843-.003906-8.53125-3.828125-8.527343-8.539062.003906-4.714844 3.824218-8.53125025 8.539062-8.527344 23.613281 0 68.265625 10.699219 68.265625 51.199219s-44.652344 51.199219-68.265625 51.199219zm0 0" fill="#af8066"/><path d="m247.9375 324.265625c-18.84375-.019531-34.113281-15.289063-34.132812-34.132813 0-4.710937 3.820312-8.53125 8.53125-8.53125 4.714843 0 8.535156 3.820313 8.535156 8.53125 0 9.425782 7.640625 17.066407 17.066406 17.066407s17.066406-7.640625 17.066406-17.066407c0-4.710937 3.820313-8.53125 8.535156-8.53125 4.710938 0 8.53125 3.820313 8.53125 8.53125-.019531 18.84375-15.289062 34.113282-34.132812 34.132813zm0 0" fill="#f09372"/><path d="m128.46875 282.550781c-3.449219 0-6.558594-2.082031-7.878906-5.269531-1.320313-3.1875-.59375-6.855469 1.847656-9.296875 13.660156-14.089844 32.101562-22.554687 51.691406-23.734375-14.199218-4.933594-29.355468-6.472656-44.253906-4.484375-4.636719.753906-9.011719-2.382813-9.78125-7.015625-.773438-4.636719 2.34375-9.023438 6.972656-9.816406 2.3125-.390625 56.644532-8.960938 85.027344 28.898437 2.296875 3.0625 2.273438 7.273438-.054688 10.308594-2.324218 3.039063-6.386718 4.152344-9.9375 2.734375-23.578124-8.367188-49.859374-2.464844-67.597656 15.175781-1.597656 1.601563-3.769531 2.5-6.035156 2.5zm0 0" fill="#35495e"/><path d="m367.402344 282.550781c-2.261719 0-4.433594-.898437-6.03125-2.5-17.75-17.640625-44.042969-23.539062-67.625-15.167969-3.550782 1.40625-7.601563.277344-9.917969-2.753906-2.320313-3.035156-2.339844-7.238281-.050781-10.296875 28.386718-37.847656 82.730468-29.289062 85.03125-28.898437 4.570312.847656 7.625 5.199218 6.863281 9.785156-.761719 4.589844-5.054687 7.722656-9.65625 7.046875-14.871094-1.921875-29.980469-.386719-44.160156 4.492187 19.550781 1.199219 37.949219 9.660157 51.578125 23.722657 2.441406 2.441406 3.175781 6.109375 1.855468 9.300781-1.320312 3.1875-4.433593 5.269531-7.886718 5.269531zm0 0" fill="#35495e"/><path d="m314.328125 457.386719c-15.703125 8.789062-39.597656 11.945312-66.390625 11.945312s-50.6875-3.15625-66.390625-11.945312c7.167969-22.527344 34.132813-39.253907 66.390625-39.253907s59.222656 16.726563 66.390625 39.253907zm0 0" fill="#fb7b76"/><path d="m333.269531 426.667969c.21875 13.058593-7.175781 25.050781-18.941406 30.71875-5.96875-15.699219-18.648437-27.910157-34.5625-33.28125-20.472656-7.964844-43.183594-7.964844-63.65625 0-15.914063 5.371093-28.59375 17.582031-34.5625 33.28125-11.765625-5.667969-19.164063-17.660157-18.941406-30.71875 0-20.652344 14.933593-45.484375 37.628906-61.183594 28.394531-20.824219 67.011719-20.824219 95.40625 0 22.695313 15.699219 37.628906 40.53125 37.628906 61.183594zm0 0" fill="#d75e72"/><g fill="#2fa8cc"><path d="m103.433594 397.390625c-7.832032 9.34375-20.054688 13.804687-32.066406 11.695313-12.011719-2.109376-21.984376-10.46875-26.164063-21.925782-4.175781-11.453125-1.925781-24.269531 5.90625-33.617187 12.105469-14.449219 64.527344-23.863281 64.527344-23.863281s-.09375 53.257812-12.203125 67.710937zm0 0"/><path d="m392.441406 397.390625c12.105469 14.445313 33.636719 16.34375 48.085938 4.238281 14.449218-12.109375 16.347656-33.636718 4.238281-48.085937-12.105469-14.449219-64.527344-23.863281-64.527344-23.863281s.09375 53.257812 12.203125 67.710937zm0 0"/><path d="m23.65625 110.59375c-8.839844-10.015625-7.941406-25.285156 2.011719-34.195312 8.90625-9.953126 24.179687-10.855469 34.195312-2.015626 8.882813 8.886719 14.078125 50.289063 14.078125 50.289063s-41.398437-5.195313-50.285156-14.078125zm0 0"/><path d="m472.21875 110.59375c8.839844-10.015625 7.941406-25.285156-2.011719-34.195312-8.90625-9.953126-24.175781-10.851563-34.191406-2.011719-8.886719 8.886719-14.082031 50.285156-14.082031 50.285156s41.398437-5.195313 50.285156-14.078125zm0 0"/></g><path d="m299.136719 384c-.007813 15.621094-7.136719 30.390625-19.371094 40.105469-20.472656-7.964844-43.183594-7.964844-63.65625 0-12.234375-9.714844-19.367187-24.484375-19.371094-40.105469-.035156-6.339844 1.152344-12.628906 3.496094-18.515625 28.394531-20.824219 67.011719-20.824219 95.40625 0 2.34375 5.886719 3.53125 12.175781 3.496094 18.515625zm0 0" fill="#802d40"/></svg>