<svg xmlns="http://www.w3.org/2000/svg" width="42" height="42" viewBox="0 0 42 42">
  <g id="ic_menu01" transform="translate(-34 -386)">
    <rect id="사각형_608" data-name="사각형 608" width="42" height="42" transform="translate(34 386)" fill="none"/>
    <g id="그룹_1635" data-name="그룹 1635" transform="translate(-197.999 154.008)">
      <g id="그룹_1631" data-name="그룹 1631" transform="translate(240.98 238.311)">
        <path id="패스_983" data-name="패스 983" d="M243.071,253.291l13.182-13.182a4.14,4.14,0,0,1,5.855,0l7.567,7.567a2.323,2.323,0,0,1,0,3.285l-15.752,15.753a2.323,2.323,0,0,1-3.285,0l-7.567-7.568a4.14,4.14,0,0,1,0-5.855Z" transform="translate(-241.859 -238.897)" fill="#f2d98d"/>
      </g>
      <path id="패스_984" data-name="패스 984" d="M261.972,254.834l.766.5a1.4,1.4,0,0,0,1.753-.179l2.907-2.908a1.394,1.394,0,0,0,.178-1.753l-.5-.766a.991.991,0,0,1,.127-1.246,2.323,2.323,0,0,0,0-3.285l-8.581-8.581a3.466,3.466,0,0,0-4.9,0l-14.135,14.135a3.467,3.467,0,0,0,0,4.9l8.581,8.581a2.323,2.323,0,0,0,3.285,0l9.278-9.278a.992.992,0,0,1,1.246-.127Z" transform="translate(-0.385 -0.092)" fill="#f6ee86"/>
      <path id="패스_985" data-name="패스 985" d="M258.6,243.444l-.115-.024a4.424,4.424,0,0,0-4.32-3.5h-3.105L239.582,251.4a3.467,3.467,0,0,0,0,4.9l8.581,8.581a2.322,2.322,0,0,0,3.284,0l7.137-7.136v-3.36l.019,0a3.5,3.5,0,0,0,2.784-3.416V246.86A3.5,3.5,0,0,0,258.6,243.444Z" transform="translate(-0.385 -0.74)" fill="#f2d98d"/>
      <g id="그룹_1632" data-name="그룹 1632" transform="translate(238.182 241.275)">
        <path id="패스_986" data-name="패스 986" d="M257.283,252.892l.9-.185a1.394,1.394,0,0,0,1.113-1.366v-4.111a1.394,1.394,0,0,0-1.113-1.366l-.9-.185a.991.991,0,0,1-.791-.971,2.323,2.323,0,0,0-2.323-2.323H242.033a3.466,3.466,0,0,0-3.466,3.466v19.991a3.466,3.466,0,0,0,3.466,3.465h12.135a2.323,2.323,0,0,0,2.323-2.322V253.862a.992.992,0,0,1,.791-.971Z" transform="translate(-238.567 -242.384)" fill="#88d37f"/>
      </g>
      <path id="패스_987" data-name="패스 987" d="M252.085,251.709a9.792,9.792,0,0,0-5.546-1.714h-7.972v16.988a3.466,3.466,0,0,0,3.466,3.465h12.135a2.323,2.323,0,0,0,2.323-2.322V255a1.007,1.007,0,0,1,.034-.259Z" transform="translate(-0.385 -2.251)" fill="#5ec682"/>
      <path id="패스_988" data-name="패스 988" d="M257.974,272.8H239.3a2.685,2.685,0,0,1-2.686-2.685v-16.04a1.619,1.619,0,0,1,1.619-1.619h8.012a7.731,7.731,0,0,1,4.366,1.35l8.173,5.586a4.306,4.306,0,0,1,1.876,3.555v7.169A2.685,2.685,0,0,1,257.974,272.8Z" transform="translate(-0.092 -2.62)" fill="#cde9fa"/>
      <path id="패스_989" data-name="패스 989" d="M257.974,272.8H239.3a2.685,2.685,0,0,1-2.686-2.685v-16.04a1.619,1.619,0,0,1,1.619-1.619h8.012a7.731,7.731,0,0,1,4.366,1.35l8.173,5.586a4.306,4.306,0,0,1,1.876,3.555v7.169A2.685,2.685,0,0,1,257.974,272.8Z" transform="translate(-0.092 -2.62)" fill="#cde9fa"/>
      <path id="패스_990" data-name="패스 990" d="M241.825,252.457h-3.59a1.619,1.619,0,0,0-1.619,1.619v16.04A2.685,2.685,0,0,0,239.3,272.8h9.805c-6.649-3.137-7.363-13.693-7.282-20.345Z" transform="translate(-0.092 -2.62)" fill="#a2ddfd"/>
      <path id="패스_991" data-name="패스 991" d="M236.615,268.828H260.66V271.5H236.615Z" transform="translate(-0.092 -5.076)" fill="#b0ade2"/>
      <path id="패스_992" data-name="패스 992" d="M236.615,268.828V271.5h8.414a15.523,15.523,0,0,1-1.317-2.669Z" transform="translate(-0.092 -5.076)" fill="#a09cdc"/>
      <g id="그룹_1634" data-name="그룹 1634" transform="translate(240.948 258.514)">
        <g id="그룹_1633" data-name="그룹 1633">
          <ellipse id="타원_24" data-name="타원 24" cx="2.048" cy="1.631" rx="2.048" ry="1.631" transform="translate(0 0.311)" fill="#fff"/>
          <ellipse id="타원_25" data-name="타원 25" cx="2.048" cy="1.631" rx="2.048" ry="1.631" transform="translate(11.099 0.311)" fill="#fff"/>
          <path id="패스_993" data-name="패스 993" d="M250.388,262.875c-.812,0-1.536-.546-1.991.127s.572,1.743,1.991,1.743,2.452-1.059,1.991-1.743S251.2,262.875,250.388,262.875Z" transform="translate(-242.791 -262.666)" fill="#4e5660"/>
        </g>
      </g>
      <path id="패스_994" data-name="패스 994" d="M245.436,257.967a.522.522,0,0,0-.738.051.676.676,0,0,1-1.019,0,.523.523,0,0,0-.789.688,1.721,1.721,0,0,0,2.6,0,.523.523,0,0,0-.05-.739Zm8.712,0a.522.522,0,0,0-.738.051.676.676,0,0,1-1.019,0,.523.523,0,1,0-.789.688,1.721,1.721,0,0,0,2.6,0A.523.523,0,0,0,254.149,257.967Zm-5.6.233c-.688,0-1.747-.644-2.424.358a1.225,1.225,0,0,0-.033,1.293,3.02,3.02,0,0,0,4.916,0,1.223,1.223,0,0,0-.034-1.293C250.292,257.556,249.227,258.2,248.545,258.2Zm1.533,1.159a1.788,1.788,0,0,1-1.533.71c-1.1,0-1.693-.724-1.557-.926a.192.192,0,0,1,.193-.106c.281,0,.813.209,1.364.209a3.841,3.841,0,0,0,.882-.128c.548-.125.592-.1.676.025.014.02.05.076-.025.216Zm19.088-12.639-1.981-1.981h0l-8.581-8.581a3.994,3.994,0,0,0-5.642,0l-4.593,4.594h-5.531a.523.523,0,0,0,0,1.046h10.945a1.8,1.8,0,0,1,1.8,1.8,1.52,1.52,0,0,0,1.209,1.483l.9.185a.875.875,0,0,1,.7.853v4.111a.875.875,0,0,1-.7.854l-.9.184a1.52,1.52,0,0,0-1.209,1.483v1.261l-4.768-3.259a8.224,8.224,0,0,0-4.66-1.441H238.7v-4.573a2.94,2.94,0,0,1,1.8-2.711.523.523,0,0,0-.409-.963,3.985,3.985,0,0,0-2.434,3.674v4.628A2.147,2.147,0,0,0,236,251.456V267.5a3.213,3.213,0,0,0,3.21,3.209h16.505a.523.523,0,1,0,0-1.046H239.209a2.165,2.165,0,0,1-2.162-2.162v-.552h23v.552a2.155,2.155,0,0,1-1.941,2.151.523.523,0,0,0,.105,1.04,3.2,3.2,0,0,0,2.881-3.192v-7.169a4.832,4.832,0,0,0-.184-1.322l6.477-6.477h0l1.782-1.783a2.848,2.848,0,0,0,0-4.025ZM260.044,265.9h-23v-1.623h23Zm0-2.669h-23V251.456a1.1,1.1,0,0,1,1.1-1.1h8.012a7.181,7.181,0,0,1,4.071,1.258l8.173,5.587a3.778,3.778,0,0,1,1.647,3.122v2.9Zm.428-5.268a4.827,4.827,0,0,0-1.13-1.353l1.37-1.369a.469.469,0,0,1,.588-.06,5.7,5.7,0,0,0,1.229.726Zm5.779-8.033.5.766a.874.874,0,0,1-.111,1.1l-2.908,2.907a.874.874,0,0,1-1.095.112l-.766-.5a1.52,1.52,0,0,0-1.9.194l-1.494,1.494-1.848-1.263v-1.976A.469.469,0,0,1,257,252.3l.9-.185a1.924,1.924,0,0,0,1.531-1.878V246.12a1.925,1.925,0,0,0-1.531-1.878l-.9-.184a.471.471,0,0,1-.374-.459,2.849,2.849,0,0,0-2.846-2.846h-3.935L253.7,236.9a2.946,2.946,0,0,1,4.161,0l8.582,8.581a1.8,1.8,0,0,1,0,2.546,1.52,1.52,0,0,0-.195,1.9Zm2.176.078-.576.576a5.662,5.662,0,0,0-.726-1.23.469.469,0,0,1,.06-.588,2.834,2.834,0,0,0,.818-1.727l.424.424a1.8,1.8,0,0,1,0,2.545Z" transform="translate(0 0)"/>
    </g>
  </g>
</svg>
