<svg xmlns="http://www.w3.org/2000/svg" width="42" height="42" viewBox="0 0 42 42">
  <g id="ic_menu02" transform="translate(-226 -221.057)">
    <rect id="사각형_609" data-name="사각형 609" width="42" height="42" transform="translate(226 221.057)" fill="#fff"/>
    <g id="그룹_1627" data-name="그룹 1627" transform="translate(233.491 226.548)">
      <path id="패스_960" data-name="패스 960" d="M239.284,272.529v5.237a1.062,1.062,0,0,0,1.569.933l1.264-.687a1.573,1.573,0,0,1,1.5,0l1.264.687a1.062,1.062,0,0,0,1.569-.933v-5.237l-3.583-1.638Z" transform="translate(-235.136 -246.275)" fill="#ff6f7f"/>
      <path id="패스_961" data-name="패스 961" d="M239.284,272.529v1.965h7.166v-1.965l-3.583-1.638Z" transform="translate(-235.136 -246.275)" fill="#fc5c70"/>
      <path id="패스_962" data-name="패스 962" d="M251.483,226.934l3.345,14.44-3.345,11.814H234.712a2.836,2.836,0,0,1-2.836-2.836V229.77a2.836,2.836,0,0,1,2.836-2.836Z" transform="translate(-231.876 -226.934)" fill="#827f98"/>
      <path id="패스_963" data-name="패스 963" d="M273.578,229.77v20.582a2.836,2.836,0,0,1-2.836,2.836h-3.854V226.934h3.854A2.837,2.837,0,0,1,273.578,229.77Z" transform="translate(-247.281 -226.934)" fill="#e8a882"/>
      <path id="패스_964" data-name="패스 964" d="M269.963,246.274h-5.325a3.61,3.61,0,1,0,.054,7.219h5.271a1.759,1.759,0,0,0,1.758-1.758v-3.7a1.758,1.758,0,0,0-1.758-1.758Z" transform="translate(-244.703 -235.444)" fill="#f1c6ad"/>
      <path id="패스_965" data-name="패스 965" d="M248.516,233.171h-6.58a2,2,0,0,0-2,2v2.193a2,2,0,0,0,2,2h6.58a2,2,0,0,0,2-2V235.17a2,2,0,0,0-2-2Z" transform="translate(-235.423 -229.678)" fill="#fff"/>
      <circle id="타원_23" data-name="타원 23" cx="1.26" cy="1.26" r="1.26" transform="translate(18.676 13.233)" fill="#e8a882"/>
      <path id="패스_966" data-name="패스 966" d="M233.431,241.623c0-7.744,1.485-12.3,5.484-14.689h-4.2a2.836,2.836,0,0,0-2.836,2.836v20.582a2.836,2.836,0,0,0,2.836,2.836h3.3A16.842,16.842,0,0,1,233.431,241.623Z" transform="translate(-231.876 -226.934)" fill="#77718c"/>
    </g>
    <g id="그룹_1628" data-name="그룹 1628" transform="translate(233 226.057)">
      <path id="패스_967" data-name="패스 967" d="M248.13,232.293h-6.579a2.494,2.494,0,0,0-2.491,2.491v2.193a2.494,2.494,0,0,0,2.491,2.491h6.579a2.494,2.494,0,0,0,2.491-2.491v-2.193a2.494,2.494,0,0,0-2.491-2.491Zm1.508,4.684a1.51,1.51,0,0,1-1.508,1.508h-6.579a1.51,1.51,0,0,1-1.509-1.508v-2.193a1.51,1.51,0,0,1,1.509-1.508h6.579a1.51,1.51,0,0,1,1.508,1.508Z" transform="translate(-234.546 -228.801)"/>
      <path id="패스_968" data-name="패스 968" d="M249.514,237.822h-4.836a.491.491,0,1,0,0,.982h4.836a.491.491,0,1,0,0-.982Z" transform="translate(-236.802 -231.234)"/>
      <path id="패스_969" data-name="패스 969" d="M266.1,253.189a1.751,1.751,0,1,0-1.751-1.751A1.753,1.753,0,0,0,266.1,253.189Zm0-2.519a.768.768,0,1,1-.768.768A.769.769,0,0,1,266.1,250.67Z" transform="translate(-245.674 -236.454)"/>
      <path id="패스_970" data-name="패스 970" d="M238.107,261.792v1.119a.491.491,0,0,0,.983,0v-1.119a.491.491,0,0,0-.983,0Z" transform="translate(-234.127 -241.564)"/>
      <path id="패스_971" data-name="패스 971" d="M258.9,261.792v1.119a.491.491,0,1,0,.982,0v-1.119a.491.491,0,0,0-.982,0Z" transform="translate(-243.277 -241.564)"/>
      <path id="패스_972" data-name="패스 972" d="M248.955,263.408a1.543,1.543,0,0,1-2.33,0,.491.491,0,1,0-.74.646,2.525,2.525,0,0,0,3.811,0,.491.491,0,1,0-.741-.646Z" transform="translate(-237.496 -242.417)"/>
      <path id="패스_973" data-name="패스 973" d="M234.326,253.292h.822v4.745a1.553,1.553,0,0,0,2.294,1.365l1.264-.687a1.074,1.074,0,0,1,1.03,0L241,259.4a1.553,1.553,0,0,0,2.295-1.365v-4.745h11.655a3.331,3.331,0,0,0,3.327-3.327v-5.477a2.244,2.244,0,0,0,.722-1.649v-3.7a2.246,2.246,0,0,0-.722-1.65v-8.1a3.331,3.331,0,0,0-3.327-3.328H234.326A3.331,3.331,0,0,0,231,229.385v10.682a.491.491,0,1,0,.982,0V229.385a2.348,2.348,0,0,1,2.344-2.345h16.279v4.881a.491.491,0,0,0,.983,0v-4.881h3.362a2.348,2.348,0,0,1,2.345,2.345v7.568a2.4,2.4,0,0,0-.543-.066h-5.164v-3a.491.491,0,1,0-.983,0v3.083a4.1,4.1,0,0,0-3.279,3.886c0,.064,0,.129,0,.193h0a4.118,4.118,0,0,0,3.28,3.949v7.314H234.326a2.347,2.347,0,0,1-2.344-2.345v-7.934a.491.491,0,1,0-.982,0v7.934a3.33,3.33,0,0,0,3.326,3.327Zm7.987,4.745a.571.571,0,0,1-.843.5l-1.264-.687a2.054,2.054,0,0,0-1.968,0l-1.264.687a.57.57,0,0,1-.843-.5v-4.745h6.183v4.745Zm6-17.157a3.13,3.13,0,0,1,3.116-3.012h5.324a1.27,1.27,0,0,1,1.267,1.267v3.7a1.27,1.27,0,0,1-1.267,1.267h-5.281a3.154,3.154,0,0,1-3.16-3.224Zm8.986,4.141v4.944a2.347,2.347,0,0,1-2.345,2.345h-3.362v-7.222h5.165a2.377,2.377,0,0,0,.542-.066Z" transform="translate(-231 -226.057)"/>
    </g>
  </g>
</svg>
