<svg xmlns="http://www.w3.org/2000/svg" width="42" height="42" viewBox="0 0 42 42">
  <g id="ic_menu03" transform="translate(-35 -585)">
    <rect id="사각형_610" data-name="사각형 610" width="42" height="42" transform="translate(35 585)" fill="none"/>
    <g id="그룹_1630" data-name="그룹 1630" transform="translate(-196 355.698)">
      <path id="패스_974" data-name="패스 974" d="M260.424,262.426v-24.7a2.785,2.785,0,0,0-2.785-2.784H239.42a2.785,2.785,0,0,0-2.785,2.784v24.7a2.785,2.785,0,0,0,2.785,2.785h18.219a2.785,2.785,0,0,0,2.785-2.785Z" transform="translate(-0.127 -0.127)" fill="#fbf1cf"/>
      <path id="패스_975" data-name="패스 975" d="M261.307,270.224a2.785,2.785,0,0,0,2.785-2.785v-7.432l-7.657,7.657a5.563,5.563,0,0,0-1.4,2.371l-.055.189Z" transform="translate(-3.795 -5.141)" fill="#fae0bd"/>
      <path id="패스_976" data-name="패스 976" d="M271.159,262.286,261.442,272a3.52,3.52,0,0,1-1.5.89l-1.444.422a1.25,1.25,0,0,1-1.55-1.55l.422-1.444a3.528,3.528,0,0,1,.891-1.5l9.718-9.719a1.745,1.745,0,0,1,2.468,0l.717.717a1.745,1.745,0,0,1,0,2.469Z" transform="translate(-4.178 -4.857)" fill="#b0ade2"/>
      <path id="패스_977" data-name="패스 977" d="M262.354,266.254l-4.1,4.1a3.528,3.528,0,0,0-.891,1.5l-.422,1.444a1.25,1.25,0,0,0,1.55,1.55l1.444-.422a3.52,3.52,0,0,0,1.5-.89l2.17-2.17C262.261,270.13,262.063,267.983,262.354,266.254Z" transform="translate(-4.178 -6.39)" fill="#a09cdc"/>
      <path id="패스_978" data-name="패스 978" d="M260.62,275.376l-2.973-2.974a3.538,3.538,0,0,0-.282.682l-.422,1.444a1.25,1.25,0,0,0,1.55,1.55l1.444-.422A3.5,3.5,0,0,0,260.62,275.376Z" transform="translate(-4.178 -7.62)" fill="#59636f"/>
      <path id="패스_979" data-name="패스 979" d="M271.933,263.884l1.6-1.6a1.746,1.746,0,0,0,0-2.469l-.717-.717a1.745,1.745,0,0,0-2.468,0l-1.6,1.6Z" transform="translate(-6.549 -4.857)" fill="#e7889d"/>
      <path id="패스_980" data-name="패스 980" d="M271.455,264.411l-1.939,1.939-3.185-3.185,1.939-1.939Z" transform="translate(-6.066 -5.385)" fill="#59636f"/>
      <path id="패스_981" data-name="패스 981" d="M255.039,241.762H244.71a1.349,1.349,0,0,1-1.35-1.35v-1.175a1.349,1.349,0,0,1,1.35-1.35h10.33a1.349,1.349,0,0,1,1.35,1.35v1.175A1.349,1.349,0,0,1,255.039,241.762Z" transform="translate(-1.472 -0.717)" fill="#a2ddfd"/>
      <path id="패스_982" data-name="패스 982" d="M255.426,239.7V238.52a1.86,1.86,0,0,0-1.858-1.858h-10.33a1.86,1.86,0,0,0-1.858,1.858V239.7a1.86,1.86,0,0,0,1.858,1.858h10.33A1.861,1.861,0,0,0,255.426,239.7Zm-13.03,0V238.52a.842.842,0,0,1,.842-.841h10.33a.842.842,0,0,1,.842.841V239.7a.843.843,0,0,1-.842.842h-10.33A.843.843,0,0,1,242.4,239.7Zm13.487,18.339h-8.263a.509.509,0,0,0,0,1.018h8.263a.509.509,0,0,0,0-1.018Zm-16.59-22.716h18.219a2.276,2.276,0,0,1,2.2,1.7.508.508,0,1,0,.984-.255,3.292,3.292,0,0,0-3.187-2.463H239.293A3.3,3.3,0,0,0,236,237.595v24.7a3.279,3.279,0,0,0,2.31,3.144.509.509,0,0,0,.3-.971,2.266,2.266,0,0,1-1.6-2.173v-24.7a2.279,2.279,0,0,1,2.276-2.276Zm16.59,16.288h-8.263a.509.509,0,0,0,0,1.018h8.263a.509.509,0,0,0,0-1.018Zm-15.943.509a2.228,2.228,0,1,0,2.228-2.228A2.23,2.23,0,0,0,239.94,252.116Zm3.439,0a1.211,1.211,0,1,1-1.211-1.211A1.212,1.212,0,0,1,243.379,252.116Zm15.967,9.043-1.59,1.59a.509.509,0,0,0,.719.719l1.59-1.59a.509.509,0,1,0-.719-.719Zm-17.178-.387a2.228,2.228,0,1,0-2.228-2.228A2.23,2.23,0,0,0,242.168,260.772Zm0-3.439a1.211,1.211,0,1,1-1.211,1.211A1.212,1.212,0,0,1,242.168,257.333Zm25.173-2.732-.717-.717a2.253,2.253,0,0,0-3.188,0l-2.631,2.631V239.3a.508.508,0,0,0-1.017,0v18.235l-6.07,6.07a4.133,4.133,0,0,0-.715.973H240.838a.509.509,0,0,0,0,1.018h11.783l-.343,1.174a1.76,1.76,0,0,0,1.678,2.254,8.617,8.617,0,0,0,1.947-.494,4.107,4.107,0,0,0,1.721-1.019l9.718-9.719A2.257,2.257,0,0,0,267.341,254.6Zm-13.167,13.37a.741.741,0,0,1-.92-.919l.4-1.366,1.886,1.886Zm2.343-.858-2.4-2.4c.278-.393,0-.043,6.146-6.208l2.466,2.466c-6.186,6.163-5.818,5.87-6.208,6.146Zm6.927-6.865-2.466-2.466,1.221-1.22,2.466,2.466Zm3.178-3.178-1.238,1.238-2.466-2.466,1.238-1.238a1.235,1.235,0,0,1,1.749,0l.717.717A1.237,1.237,0,0,1,266.622,257.069ZM241.628,247.1l2.994-2.994a.508.508,0,0,0-.719-.718l-2.634,2.633-.835-.835a.509.509,0,1,0-.719.719l1.2,1.2A.508.508,0,0,0,241.628,247.1Zm14.255-1.925h-8.263a.508.508,0,1,0,0,1.017h8.263a.508.508,0,0,0,0-1.017Z" transform="translate(0 0)"/>
    </g>
  </g>
</svg>
