<svg height="512" viewBox="0 0 64 64" width="512" xmlns="http://www.w3.org/2000/svg"><g id="Artboard_10" data-name="Artboard 10"><path d="m55 25a6.962 6.962 0 0 0 -2.3.4v-.01a22.95 22.95 0 0 0 -20.7-13.39 22.952 22.952 0 0 0 -20.695 13.389v.011a6.994 6.994 0 1 0 -2.305 13.6c.127 0 .876.006 1 0a22.064 22.064 0 0 0 22 18 22.066 22.066 0 0 0 22-18c.125.007.873 0 1 0a7 7 0 0 0 0-14z" fill="#f4c8ad"/><path d="m55 25a6.962 6.962 0 0 0 -2.3.4v-.01a22.95 22.95 0 0 0 -20.7-13.39 22.952 22.952 0 0 0 -20.695 13.389v.011a6.994 6.994 0 1 0 -2.305 13.6c.127 0 .876.006 1 0a22.064 22.064 0 0 0 22 18 22.066 22.066 0 0 0 22-18c.125.007.873 0 1 0a7 7 0 0 0 0-14z" fill="#f4c8ad"/><path d="m34.943 54.057a22.318 22.318 0 0 0 14.39-5.094 22.236 22.236 0 0 0 4.667-9.963c.125.007.873 0 1 0a7 7 0 1 0 -2.3-13.6v-.01a22.95 22.95 0 0 0 -20.7-13.39 22.952 22.952 0 0 0 -20.695 13.389v.011a6.892 6.892 0 0 0 -5.548.4 6.925 6.925 0 0 0 -.814 3.257 7 7 0 0 0 7 7c.127 0 .876.006 1 0a22.064 22.064 0 0 0 22 18z" fill="#fbdac2"/><g fill="#393a3a"><circle cx="39" cy="31" r="2"/><circle cx="25" cy="31" r="2"/><path d="m32 48c-4.963 0-9-3.14-9-7h2c0 2.757 3.141 5 7 5s7-2.243 7-5h2c0 3.86-4.037 7-9 7z"/><path d="m32 21c-.05 0-5-.08-5-7 0-7.909 5.94-8 6-8v2c-.4.007-4 .239-4 6 0 4.781 2.7 4.992 3.013 5a1.879 1.879 0 0 0 1.987-2 1.884 1.884 0 0 0 -2.008-2l.008-2a3.888 3.888 0 0 1 4 4 3.888 3.888 0 0 1 -4 4z"/></g></g></svg>